{"title":"Becoming.Redwood.2012.WEBRip XViD juggs","uid":8529036,"size":745177211,"categoryP":"video","categoryS":"movies","magnet":"?xt=urn:btih:5f0b0bf25c1b6ae80bcddd956fcec689e541ace5&amp;dn=Becoming.Redwood.2012.WEBRip+XViD+juggs&amp;tr=udp%3A%2F%2Ftracker.openbittorrent.com%3A80&amp;tr=udp%3A%2F%2Fopen.demonii.com%3A1337&amp;tr=udp%3A%2F%2Ftracker.coppersurfer.tk%3A6969&amp;tr=udp%3A%2F%2Fexodus.desync.com%3A6969","seeders":0,"leechers":1,"uploader":"juggs99","files":3,"time":1370099192,"description":"Source : WEBiOS(Thanks)\n &lt;a href=&quot;\nhttp://www.imdb.com/title/tt2055593/&quot; rel=&quot;nofollow&quot; target=&quot;_NEW&quot;&gt;\nhttp://www.imdb.com/title/tt2055593/&lt;/a&gt;\n\nFormat : AVI\nFormat/Info : Audio Video Interleave\nFile size : 698 MiB\nDuration : 1h 39mn\nOverall bit rate : 984 Kbps\nWriting library : VirtualDub build 32842/release\n\nVideo\nID : 0\nFormat : MPEG-4 Visual\nFormat profile : Advanced Simple@L5\nFormat settings, BVOP : 2\nFormat settings, QPel : No\nFormat settings, GMC : No warppoints\nFormat settings, Matrix : Default (H.263)\nMuxing mode : Packed bitstream\nCodec ID : XVID\nCodec ID/Hint : XviD\nDuration : 1h 39mn\nBit rate : 846 Kbps\nWidth : 640 pixels\nHeight : 272 pixels\nDisplay aspect ratio : 2.35:1\nFrame rate : 23.976 fps\nColor space : YUV\nChroma subsampling : 4:2:0\nBit depth : 8 bits\nScan type : Progressive\nCompression mode : Lossy\nBits/(Pixel*Frame) : 0.203\nStream size : 600 MiB (86%)\nWriting library : XviD 64\n\nAudio\nID : 1\nFormat : MPEG Audio\nFormat version : Version 1\nFormat profile : Layer 3\nCodec ID : 55\nCodec ID/Hint : MP3\nDuration : 1h 39mn\nBit rate mode : Constant\nBit rate : 128 Kbps\nChannel(s) : 2 channels\nSampling rate : 48.0 KHz\nCompression mode : Lossy\nStream size : 90.8 MiB (13%)\nAlignment : Split accross interleaves\nInterleave, duration : 42 ms (1.00 video frame)\nInterleave, preload duration : 500 ms\nWriting library : LAME3.99r\nEncoding settings : -m s -V 4 -q 3 -lowpass 17 -b 128\n\nPlot\nRedwood Forrest Hanson dreams that if he can beat Jack Nicklaus at the 1975 Masters of golf, he'll reunite his parents forever.\n &lt;a href=&quot;\nhttp://www.shotpix.com/images/50578717059611893729.png&quot; rel=&quot;nofollow&quot; target=&quot;_NEW&quot;&gt;\nhttp://www.shotpix.com/images/50578717059611893729.png&lt;/a&gt; &lt;a href=&quot;\nhttp://www.shotpix.com/images/29804153009305894171.png&quot; rel=&quot;nofollow&quot; target=&quot;_NEW&quot;&gt;\nhttp://www.shotpix.com/images/29804153009305894171.png&lt;/a&gt; &lt;a href=&quot;\nhttp://www.shotpix.com/images/81702503970605001702.png&quot; rel=&quot;nofollow&quot; target=&quot;_NEW&quot;&gt;\nhttp://www.shotpix.com/images/81702503970605001702.png&lt;/a&gt;","torrent":{"xt":"urn:btih:5f0b0bf25c1b6ae80bcddd956fcec689e541ace5","amp;dn":"Becoming.Redwood.2012.WEBRip+XViD+juggs","amp;tr":["udp%3A%2F%2Ftracker.openbittorrent.com%3A80","udp%3A%2F%2Fopen.demonii.com%3A1337","udp%3A%2F%2Ftracker.coppersurfer.tk%3A6969","udp%3A%2F%2Fexodus.desync.com%3A6969"],"infoHash":"5f0b0bf25c1b6ae80bcddd956fcec689e541ace5","infoHashBuffer":{"type":"Buffer","data":[95,11,11,242,92,27,106,232,11,205,221,149,111,206,198,137,229,65,172,229]},"announce":[],"urlList":[]}}